<svg xmlns="http://www.w3.org/2000/svg" width="50" height="50" viewBox="0 0 50 50" xmlns:xlink="http://www.w3.org/1999/xlink">
  <defs>
    <path id="a" d="M4.09066309,50 C2.383737,50 1,48.6105286 1,46.8722761 L1,3.12772393 C1,1.4003297 2.38282162,-7.10542736e-15 4.09066309,-7.10542736e-15 L32.9093369,-7.10542736e-15 C34.616263,-7.10542736e-15 36,1.38947144 36,3.12772393 L36,46.8722761 C36,48.5996703 34.6171784,50 32.9093369,50 L4.09066309,50 Z"/>
    <linearGradient id="b" x1="0%" y1="0%" y2="109.433%">
      <stop stop-color="#4A7BF1" offset="0%"/>
      <stop stop-color="#1B50CF" offset="100%"/>
    </linearGradient>
    <linearGradient id="c" x1="-17.815%" y1="50%" y2="50%">
      <stop stop-color="#5CE6FF" offset="0%"/>
      <stop stop-color="#2FC8FF" offset="100%"/>
    </linearGradient>
    <linearGradient id="d" x1="-16.831%" y1="37.803%" y2="37.803%">
      <stop stop-color="#418EEA" offset="0%"/>
      <stop stop-color="#1F55D0" offset="100%"/>
    </linearGradient>
  </defs>
  <g fill="none" fill-rule="evenodd">
    <use fill="#2154CF" xlink:href="#a"/>
    <path fill="url(#b)" d="M1,3 L31.9715457,3 C32.5395453,3 33,3.46517551 33,4.0475593 L33,50 L4.09737033,50 C2.38673993,50 1,48.5933834 1,46.8615314 L1,3 Z"/>
    <path fill="url(#c)" d="M18.5 43C12.7010101 43 8 38.3002649 8 32.5 8 26.7010101 12.6997351 22 18.5 22 24.2989899 22 29 26.6997351 29 32.5 29 38.2989899 24.3002649 43 18.5 43zM10 14C7.790861 14 6 12.2046438 6 10 6 7.790861 7.79535615 6 10 6 12.209139 6 14 7.79535615 14 10 14 12.209139 12.2046438 14 10 14zM26 14C23.790861 14 22 12.2046438 22 10 22 7.790861 23.7953562 6 26 6 28.209139 6 30 7.79535615 30 10 30 12.209139 28.2046438 14 26 14zM48.9151646 31.869172L47.9239204 31.284493C47.9215146 31.2828324 47.9192038 31.281051 47.9166714 31.2795414L42.3825885 28.0192877C42.2934164 27.9666922 42.1783505 28.0278624 42.1783505 28.1278602L42.1783505 29.4688328 42.1783505 33.9624831C41.937551 33.9111859 41.6800694 33.882986 41.4121099 33.882986 40.0799415 33.882986 39 34.5696858 39 35.4167684 39 36.2638511 40.0799415 36.9505508 41.4121099 36.9505508 42.7442784 36.9505508 43.8242199 36.2638511 43.8242199 35.4167684L43.8244098 35.4167684 43.8244098 30.7719138 47.3539407 32.8501889 47.3539407 37.0119323C47.1131413 36.9606351 46.8556596 36.9324352 46.5877001 36.9324352 45.2555317 36.9324352 44.1755902 37.619135 44.1755902 38.4662176 44.1755902 39.3133003 45.2555317 40 46.5877001 40 47.9198686 40 48.9998101 39.3133003 48.9998101 38.4662176L49 38.4662176 49 35.621323 49 33.821363 49 32.0143681C49 31.9552208 48.9679018 31.9002704 48.9151646 31.869172"/>
    <path fill="url(#d)" d="M47.9366596,12.1336513 L44.3774597,10.0193942 C44.2884228,9.96650822 44.1735314,10.0280163 44.1735314,10.1285665 L44.1735314,11.4769477 L44.1735314,15.9954241 C43.9330654,15.9438738 43.6760058,15.9154878 43.4084526,15.9154878 C42.0783041,15.9154878 41,16.6059814 41,17.4577439 C41,18.3095064 42.0783041,19 43.4084526,19 C44.7386012,19 45.8169052,18.3095064 45.8169052,17.4577439 L45.8170949,17.4577439 L45.8170949,12.7872278 L47.7960717,13.9628034 C47.8851086,14.0156591 48,13.954151 48,13.8536311 L48,12.2428236 C48,12.1983471 47.9760419,12.1570583 47.9366596,12.1336513"/>
  </g>
</svg>
