<svg xmlns="http://www.w3.org/2000/svg" width="50" height="50" viewBox="0 0 50 50" xmlns:xlink="http://www.w3.org/1999/xlink">
  <defs>
    <circle id="a" cx="25" cy="25" r="25"/>
    <linearGradient id="b" x1="8.71%" y1="4.727%" y2="110.263%">
      <stop stop-color="#4A7BF1" offset="0%"/>
      <stop stop-color="#1B50CF" offset="100%"/>
    </linearGradient>
    <linearGradient id="c" x1="-21.89%" y1="65.704%" y2="50%">
      <stop stop-color="#2C66BE" offset="0%"/>
      <stop stop-color="#143689" offset="100%"/>
    </linearGradient>
    <linearGradient id="d" x1="-17.815%" y1="50%" y2="50%">
      <stop stop-color="#5CE6FF" offset="0%"/>
      <stop stop-color="#2FC8FF" offset="100%"/>
    </linearGradient>
  </defs>
  <g fill="none" fill-rule="evenodd">
    <use fill="#2154CF" xlink:href="#a"/>
    <path fill="url(#b)" d="M38.049368,3.54635459 C34.2764341,1.29450351 29.8613251,0 25.1426054,0 C11.2567279,0 0,11.2098948 0,25.0380008 C0,30.396148 1.69011421,35.3611903 4.56841081,39.433284 C9.05306305,44.0963585 15.3677191,47 22.3633903,47 C35.9698141,47 47,36.0157047 47,22.4658898 C47,14.8509894 43.5162694,8.0463726 38.0493642,3.54635232 L38.049368,3.54635459 Z"/>
    <path fill="url(#c)" d="M7.32233047 7.5L25 25 7.32233047 42.5C2.79822031 38.0213594 0 31.8341751 0 25 0 18.1658249 2.79822031 11.9786406 7.32233047 7.5L7.32233047 7.5zM42.6776695 42.5L25 25 42.6776695 7.5C47.2017797 11.9786406 50 18.1658249 50 25 50 31.8341751 47.2017797 38.0213594 42.6776695 42.5z"/>
    <circle cx="25.5" cy="25.5" r="11.5" fill="url(#d)"/>
    <path fill="#183F9C" d="M30.6618992,21.1258086 C30.4812302,20.9569455 30.1908569,20.9581804 30.013033,21.128854 L24.5926822,26.3312515 C24.4149923,26.5017965 24.1225768,26.5030444 23.9453558,26.3393962 L20.927638,23.5527957 C20.7478194,23.3867489 20.4615077,23.3929992 20.2859682,23.5689355 L19.1270854,24.7304381 C18.9525195,24.9053986 18.9587269,25.1845262 19.1399416,25.3529497 L24.0048497,29.8744644 C24.1865159,30.0433075 24.4768225,30.0412795 24.651425,29.8717241 L31.8707887,22.8610442 C32.0462162,22.6906876 32.0429747,22.4166375 31.8612982,22.2468326 L30.6618992,21.1258086 Z"/>
  </g>
</svg>
