<?xml version="1.0" encoding="UTF-8"?>
<svg width="49px" height="49px" viewBox="0 0 49 49" version="1.1" xmlns="http://www.w3.org/2000/svg" xmlns:xlink="http://www.w3.org/1999/xlink">
    <!-- Generator: Sketch 52.5 (67469) - http://www.bohemiancoding.com/sketch -->
    <title>Group 14</title>
    <desc>Created with Sketch.</desc>
    <defs>
        <linearGradient x1="42.4635235%" y1="54.1306396%" x2="123.430091%" y2="132.431897%" id="linearGradient-1">
            <stop stop-color="#4A7BF1" offset="0%"></stop>
            <stop stop-color="#1B50CE" offset="100%"></stop>
        </linearGradient>
        <linearGradient x1="-2.39195363%" y1="257.613963%" x2="68.3543192%" y2="59.170876%" id="linearGradient-2">
            <stop stop-color="#4A7BF1" offset="0%"></stop>
            <stop stop-color="#1B50CE" offset="100%"></stop>
        </linearGradient>
        <linearGradient x1="-21.8899866%" y1="65.7041698%" x2="100%" y2="50%" id="linearGradient-3">
            <stop stop-color="#2D66BE" offset="0%"></stop>
            <stop stop-color="#143689" offset="100%"></stop>
        </linearGradient>
        <linearGradient x1="122.878052%" y1="179.486764%" x2="66.3168008%" y2="31.4443462%" id="linearGradient-4">
            <stop stop-color="#2D66BE" offset="0%"></stop>
            <stop stop-color="#143689" offset="100%"></stop>
        </linearGradient>
        <linearGradient x1="-17.8153842%" y1="50%" x2="100%" y2="50%" id="linearGradient-5">
            <stop stop-color="#5CE6FF" offset="0%"></stop>
            <stop stop-color="#2FC8FF" offset="100%"></stop>
        </linearGradient>
        <linearGradient x1="50%" y1="50%" x2="100%" y2="50%" id="linearGradient-6">
            <stop stop-color="#5CE6FF" offset="0%"></stop>
            <stop stop-color="#2FC8FF" offset="100%"></stop>
        </linearGradient>
    </defs>
    <g id="Page-1" stroke="none" stroke-width="1" fill="none" fill-rule="evenodd">
        <g id="Ñareers-aug-18" transform="translate(-504.000000, -1647.000000)">
            <g id="Group-14" transform="translate(504.000000, 1643.000000)">
                <rect id="Rectangle-23-Copy" fill="#D8D8D8" fill-rule="nonzero" opacity="0" x="0" y="3" width="50" height="50"></rect>
                <path d="M6,28 L34,28 L34,53 L7,53 C6.44771525,53 6,52.5522847 6,52 L6,28 Z" id="Rectangle-5" fill="url(#linearGradient-1)"></path>
                <polygon id="Rectangle-5-Copy-5" fill="url(#linearGradient-2)" points="5.5043427 28 32 28 26.4956573 38 0 38"></polygon>
                <path d="M32,28 L44,28 L44,52 C44,52.5522847 43.5522847,53 43,53 L32,53 L32,28 Z" id="Rectangle-5-Copy-4" fill="url(#linearGradient-3)"></path>
                <polygon id="Rectangle-5-Copy-6" fill="url(#linearGradient-4)" points="32 28 43.997502 28 49 38 37.002498 38"></polygon>
                <path d="M13,43.9906311 C13,44.5480902 13.4556644,45 13.9953976,45 L22.0046024,45 C22.5543453,45 23,44.5566468 23,43.9906311 L23,42.0093689 C23,41.4519098 22.5443356,41 22.0046024,41 L13.9953976,41 C13.4456547,41 13,41.4433532 13,42.0093689 L13,43.9906311 Z" id="Fill-21-Copy" fill="url(#linearGradient-5)"></path>
                <path d="M34.3921356,13.732233 L34.3921356,23.3106602 L24.8137085,23.3106602 C19.5236893,23.3106602 15.2352814,19.0222523 15.2352814,13.732233 C15.2352814,8.44221382 19.5236893,4.15380592 24.8137085,4.15380592 C30.1037277,4.15380592 34.3921356,8.44221382 34.3921356,13.732233 Z M24.8137085,17.5636039 C26.9297162,17.5636039 28.6450793,15.8482407 28.6450793,13.732233 C28.6450793,11.6162254 26.9297162,9.9008622 24.8137085,9.9008622 C22.6977008,9.9008622 20.9823376,11.6162254 20.9823376,13.732233 C20.9823376,15.8482407 22.6977008,17.5636039 24.8137085,17.5636039 Z" id="Combined-Shape" fill="url(#linearGradient-6)" transform="translate(24.813708, 13.732233) rotate(-315.000000) translate(-24.813708, -13.732233) "></path>
            </g>
        </g>
    </g>
</svg>