<svg xmlns="http://www.w3.org/2000/svg" width="50" height="50" viewBox="0 0 50 50">
  <defs>
    <linearGradient id="a" x1="11.072%" x2="81.813%" y1="11.382%" y2="123.868%">
      <stop stop-color="#4A7BF1" offset="0%"/>
      <stop stop-color="#1B50CF" offset="100%"/>
    </linearGradient>
    <linearGradient id="b" x1="-17.815%" y1="50%" y2="50%">
      <stop stop-color="#5CE6FF" offset="0%"/>
      <stop stop-color="#2FC8FF" offset="100%"/>
    </linearGradient>
  </defs>
  <g fill="none" fill-rule="evenodd">
    <path fill="url(#a)" d="M49.6442221,29.394814 L43.9042578,13.0417264 C42.9947653,10.449819 40.4017764,8.8081768 37.6233028,9.01800192 L37.6218348,9.00634729 L6.48739842,12.732933 L6.48966153,12.7509006 C3.81075873,13.2534389 1.77055063,15.4304198 1.53502229,18.1130431 L0.0243991035,35.333978 C-0.289769849,38.9137824 2.46713807,42.0254413 6.15271179,41.9998432 C9.37499754,41.9774469 11.9749824,39.5757266 12.24296,36.5244506 L12.635586,32.0460083 C12.7167704,31.1248621 13.4482718,30.3846659 14.3897772,30.271974 L34.4493209,27.8709795 C35.3908263,27.7582876 36.2842933,28.3039858 36.5916668,29.1786242 L38.084044,33.4314441 C39.1012959,36.3288866 42.2205825,38.046048 45.3522126,37.3079227 C48.9346005,36.463101 50.837458,32.794192 49.6442221,29.394814 Z"/>
    <path fill="url(#b)" d="M19.7205934,24.8464214 C19.9283451,26.5356956 18.7251274,28.0732615 17.0331256,28.2806783 C15.3411239,28.4880951 13.8010754,27.286817 13.5933237,25.5975427 C13.385572,23.9082685 14.5887897,22.3707026 16.2807915,22.1632858 C17.9727933,21.955869 19.5128417,23.1571471 19.7205934,24.8464214 Z M33.7199198,23.0264352 C33.9276715,24.7157094 32.7244538,26.2532753 31.032452,26.4606921 C29.3404502,26.6681089 27.8004018,25.4668308 27.5926501,23.7775566 C27.3848984,22.0882823 28.5881161,20.5507164 30.2801179,20.3432996 C31.9721196,20.1358828 33.5121681,21.337161 33.7199198,23.0264352 Z M42.3883574,15.2338666 C42.4920492,16.077007 41.8915897,16.8443212 41.047088,16.9478458 C40.2025863,17.0513704 39.4340332,16.4518789 39.3303414,15.6087385 C39.2266496,14.7655981 39.8271091,13.9982839 40.6716108,13.8947593 C41.5161125,13.7912347 42.2846656,14.3907262 42.3883574,15.2338666 Z M36.2610877,15.984988 C36.3647795,16.8281283 35.76432,17.5954425 34.9198182,17.6989671 C34.0753165,17.8024918 33.3067634,17.2030002 33.2030717,16.3598598 C33.0993799,15.5167195 33.6998394,14.7494053 34.5443411,14.6458807 C35.3888428,14.542356 36.1573959,15.1418476 36.2610877,15.984988 Z M38.9485555,12.550731 C39.0522473,13.3938714 38.4517878,14.1611856 37.607286,14.2647102 C36.7627843,14.3682348 35.9942312,13.7687433 35.8905395,12.9256029 C35.7868477,12.0824625 36.3873072,11.3151483 37.2318089,11.2116237 C38.0763106,11.1080991 38.8448637,11.7075907 38.9485555,12.550731 Z M39.7008896,18.6681236 C39.8045814,19.5112639 39.2041219,20.2785781 38.3596202,20.3821027 C37.5151185,20.4856274 36.7465653,19.8861358 36.6428736,19.0429954 C36.5391818,18.1998551 37.1396413,17.4325409 37.984143,17.3290163 C38.8286447,17.2254916 39.5971978,17.8249832 39.7008896,18.6681236 Z M12.5909047,17.335461 L9.5274613,17.7109982 L9.15157645,14.6545966 L6.08755863,15.0302042 L6.46344348,18.0866058 L3.4000001,18.462143 L3.77588495,21.5185446 L6.83932833,21.1430074 L7.21528367,24.199982 L10.2793015,23.8243744 L9.90334615,20.7673997 L12.9667895,20.3918625 L12.5909047,17.335461 Z"/>
  </g>
</svg>
