<svg xmlns="http://www.w3.org/2000/svg" width="50" height="50" viewBox="0 0 50 50">
  <defs>
    <linearGradient id="a" x1="0%" y1="0%" y2="100%">
      <stop stop-color="#4A7BF1" offset="0%"/>
      <stop stop-color="#1B50CF" offset="100%"/>
    </linearGradient>
    <linearGradient id="b" x1="-17.815%" y1="50%" y2="50%">
      <stop stop-color="#5CE6FF" offset="0%"/>
      <stop stop-color="#2FC8FF" offset="100%"/>
    </linearGradient>
  </defs>
  <g fill="none" fill-rule="evenodd">
    <path fill="#2154CF" d="M7.30227178,45.3980678 C6.46439795,46.0522183 5.8895614,45.7282108 6.01792325,44.6777744 L6.8339379,38 L15.426757,39.0550655 L7.30227178,45.3980678 Z"/>
    <path fill="#2154CF" d="M1.87487048,12.8235177 C2.55106778,7.31633261 7.55494049,3.39896898 13.0696686,4.07609244 L41.1781266,7.52737712 C46.6846456,8.20349264 50.5997633,13.2211927 49.9241977,18.7232332 L48.1251295,33.3754675 C47.4489322,38.8826525 42.4450595,42.8000162 36.9303314,42.1228927 L8.82187338,38.671608 C3.31535442,37.9954925 -0.599763302,32.9777925 0.0758023342,27.4757519 L1.87487048,12.8235177 Z"/>
    <path fill="url(#a)" d="M2.13912063,11.4541287 C2.05794511,11.7976544 1.99477244,12.1491045 1.95075711,12.5075806 L0.0727153457,27.8030033 C0.0295292832,28.1547256 0.00589945346,28.5044033 0.000974498957,28.8509387 C0.0576469133,32.9178648 2.58126453,36.5249876 6.2858175,38.0184268 C6.97346924,38.2729738 7.70122928,38.4523743 8.46055147,38.5456073 L37.1578409,42.0691914 C39.3092718,42.3333539 41.3834622,41.8651327 43.1297235,40.8596506 L45.9480814,17.9059671 C46.3371758,14.7370473 44.0876549,11.8521263 40.9234765,11.463614 L4.67097586,7.01236662 C3.48420527,8.22170512 2.59491101,9.73798687 2.13912063,11.4541287 L2.13912063,11.4541287 Z"/>
    <path fill="url(#b)" d="M30.8846741,24.1454861 L34.0341342,23.418376 C34.4339759,26.6999876 33.0879006,29.8766992 30.6526723,31.9032474 C31.3092854,29.8146916 31.4253695,27.0875754 30.8846741,24.1454861 Z M25.323685,23.3503096 L23.4785048,15.3579561 C25.2153837,15.9472782 27.3185074,18.6135464 28.4553887,22.6272989 L25.323685,23.3503096 Z M25.7793788,25.3241364 L28.9110825,24.6011256 C29.6488496,28.7073675 28.9273895,32.0257421 27.6246349,33.3168189 L25.7793788,25.3241364 Z M30.4289803,22.1716594 C29.625227,19.2903018 28.3254782,16.8904029 26.8197557,15.3010615 C29.8969047,16.0549772 32.4993278,18.3201061 33.5784404,21.4445492 L30.4289803,22.1716594 Z M23.3507511,23.8057973 L20.2012909,24.5329075 C19.4610167,20.4113053 20.1909234,17.0830109 21.5030646,15.8025877 L23.3507511,23.8057973 Z M25.6542074,33.7831627 C23.9135621,33.2075307 21.7984981,30.5360496 20.6569847,26.5067343 L23.8064449,25.7796241 L25.6542074,33.7831627 Z M15.0956668,25.7116337 C14.6971171,22.4401189 16.034265,19.272745 18.4557579,17.2452098 C17.8029388,19.3321967 17.688523,22.0530371 18.2280282,24.9884711 L15.0956668,25.7116337 Z M18.683722,26.9622979 C19.4856275,29.837152 20.7812776,32.2327995 22.2829024,33.8223939 C19.2176661,33.0615699 16.6273602,30.8009201 15.5513606,27.6854605 L18.683722,26.9622979 Z M13.2976394,27.166257 C14.7304927,33.3726263 20.9401149,37.2578789 27.146183,35.8365298 C33.379086,34.3978973 37.2665339,28.1767013 35.8321616,21.9637526 C34.3978654,15.7511329 28.1765816,11.8633751 21.9638127,13.2977058 C15.742851,14.7460556 11.8648621,20.9602167 13.2976394,27.166257 Z"/>
  </g>
</svg>
